<svg width="16" height="24" viewBox="0 0 16 24" fill="none" xmlns="http://www.w3.org/2000/svg">
<path d="M13.7383 20.2116C12.109 22.03 9.8475 23.0777 7.53058 23.0777C6.91673 23.0777 6.30288 22.9993 5.7075 22.8516C4.06442 22.4454 2.66135 21.55 1.53058 20.1885C1.49365 20.1423 -1.63558 16.127 1.2675 11.3362C1.42442 11.0823 1.59981 10.8516 1.73827 10.6762C3.00288 9.08388 4.23981 6.88234 3.56596 5.9085C3.51368 5.83138 3.48612 5.74017 3.48695 5.64701C3.48777 5.55384 3.51694 5.46314 3.57058 5.38696C3.67673 5.22542 3.87519 5.15157 4.05981 5.20234C4.23981 5.24388 5.63365 5.68234 5.93365 8.44234C6.23827 7.79619 6.50596 6.93311 6.44135 5.95003C6.34442 4.45926 5.5275 3.04234 4.00904 1.73157C3.92959 1.66293 3.87614 1.56907 3.85766 1.46572C3.83917 1.36237 3.85677 1.2558 3.9075 1.16388C4.00904 0.974648 4.23519 0.877725 4.43827 0.942341C4.54442 0.970033 14.4075 3.9608 12.9121 14.1839C13.489 13.5654 14.1306 12.3654 13.9737 10.1685C13.9598 9.95157 14.0937 9.75773 14.2967 9.69311C14.5044 9.6285 14.726 9.71619 14.8321 9.9008C14.8644 9.95619 17.9798 15.4716 13.7383 20.2116Z" fill="#E67E22"/>
</svg>
