<svg width="113" height="24" viewBox="0 0 113 24" fill="none" xmlns="http://www.w3.org/2000/svg">
<path d="M1.55 18C1.38333 18 1.24167 17.9417 1.125 17.825C1.00833 17.7083 0.95 17.5667 0.95 17.4V1.1C0.95 0.933332 1.00833 0.791666 1.125 0.675C1.24167 0.558332 1.38333 0.499999 1.55 0.499999H3.875C4.04167 0.499999 4.18333 0.558332 4.3 0.675C4.41667 0.791666 4.475 0.933332 4.475 1.1V15.025H12.4C12.5833 15.025 12.7333 15.0833 12.85 15.2C12.9667 15.3167 13.025 15.4667 13.025 15.65V17.4C13.025 17.5667 12.9667 17.7083 12.85 17.825C12.7333 17.9417 12.5833 18 12.4 18H1.55ZM20.7066 18.25C19.3733 18.25 18.2483 18.0167 17.3316 17.55C16.4316 17.0833 15.74 16.425 15.2566 15.575C14.79 14.725 14.5233 13.7333 14.4566 12.6C14.44 12.3 14.4316 11.9333 14.4316 11.5C14.4316 11.0667 14.44 10.7 14.4566 10.4C14.5233 9.25 14.7983 8.25833 15.2816 7.425C15.7816 6.575 16.4816 5.91667 17.3816 5.45C18.2983 4.98333 19.4066 4.75 20.7066 4.75C22.0066 4.75 23.1066 4.98333 24.0066 5.45C24.9233 5.91667 25.6233 6.575 26.1066 7.425C26.6066 8.25833 26.89 9.25 26.9566 10.4C26.9733 10.7 26.9816 11.0667 26.9816 11.5C26.9816 11.9333 26.9733 12.3 26.9566 12.6C26.89 13.7333 26.615 14.725 26.1316 15.575C25.665 16.425 24.9733 17.0833 24.0566 17.55C23.1566 18.0167 22.04 18.25 20.7066 18.25ZM20.7066 15.775C21.59 15.775 22.2733 15.5 22.7566 14.95C23.24 14.3833 23.5066 13.5583 23.5566 12.475C23.5733 12.225 23.5816 11.9 23.5816 11.5C23.5816 11.1 23.5733 10.775 23.5566 10.525C23.5066 9.45833 23.24 8.64167 22.7566 8.075C22.2733 7.50833 21.59 7.225 20.7066 7.225C19.8233 7.225 19.14 7.50833 18.6566 8.075C18.1733 8.64167 17.9066 9.45833 17.8566 10.525C17.84 10.775 17.8316 11.1 17.8316 11.5C17.8316 11.9 17.84 12.225 17.8566 12.475C17.9066 13.5583 18.1733 14.3833 18.6566 14.95C19.14 15.5 19.8233 15.775 20.7066 15.775ZM35.6266 23.5C34.4099 23.5 33.4099 23.3417 32.6266 23.025C31.8432 22.7083 31.2266 22.325 30.7766 21.875C30.3266 21.425 30.0016 20.975 29.8016 20.525C29.6182 20.0917 29.5182 19.75 29.5016 19.5C29.4849 19.3333 29.5349 19.1833 29.6516 19.05C29.7849 18.9333 29.9349 18.875 30.1016 18.875H32.2766C32.4432 18.875 32.5766 18.9083 32.6766 18.975C32.7766 19.0583 32.8599 19.2 32.9266 19.4C33.0266 19.6167 33.1599 19.85 33.3266 20.1C33.4932 20.35 33.7432 20.5583 34.0766 20.725C34.4266 20.9083 34.9016 21 35.5016 21C36.1349 21 36.6682 20.9083 37.1016 20.725C37.5349 20.5417 37.8599 20.2333 38.0766 19.8C38.3099 19.3667 38.4266 18.7667 38.4266 18V16.3C38.0266 16.7833 37.5099 17.175 36.8766 17.475C36.2599 17.775 35.4932 17.925 34.5766 17.925C33.6766 17.925 32.9016 17.7833 32.2516 17.5C31.6016 17.2 31.0599 16.7917 30.6266 16.275C30.1932 15.7417 29.8599 15.1167 29.6266 14.4C29.4099 13.6833 29.2849 12.8917 29.2516 12.025C29.2349 11.575 29.2349 11.125 29.2516 10.675C29.2849 9.84167 29.4099 9.06667 29.6266 8.35C29.8432 7.63333 30.1682 7.00833 30.6016 6.475C31.0516 5.925 31.6016 5.5 32.2516 5.2C32.9016 4.9 33.6766 4.75 34.5766 4.75C35.5266 4.75 36.3266 4.93333 36.9766 5.3C37.6266 5.65 38.1599 6.09167 38.5766 6.625V5.625C38.5766 5.44167 38.6349 5.29167 38.7516 5.175C38.8682 5.05833 39.0099 5 39.1766 5H41.2016C41.3682 5 41.5099 5.05833 41.6266 5.175C41.7432 5.29167 41.8016 5.44167 41.8016 5.625L41.8266 17.675C41.8266 18.875 41.6016 19.9083 41.1516 20.775C40.7016 21.6417 40.0182 22.3083 39.1016 22.775C38.2016 23.2583 37.0432 23.5 35.6266 23.5ZM35.5016 15.275C36.1849 15.275 36.7349 15.125 37.1516 14.825C37.5682 14.525 37.8766 14.1333 38.0766 13.65C38.2766 13.1667 38.3932 12.675 38.4266 12.175C38.4432 11.9583 38.4516 11.6833 38.4516 11.35C38.4516 11.0167 38.4432 10.75 38.4266 10.55C38.3932 10.0333 38.2766 9.54167 38.0766 9.075C37.8766 8.59167 37.5682 8.2 37.1516 7.9C36.7349 7.58333 36.1849 7.425 35.5016 7.425C34.8182 7.425 34.2682 7.58333 33.8516 7.9C33.4349 8.2 33.1349 8.6 32.9516 9.1C32.7849 9.6 32.6849 10.15 32.6516 10.75C32.6182 11.15 32.6182 11.5583 32.6516 11.975C32.6849 12.5583 32.7849 13.1083 32.9516 13.625C33.1349 14.125 33.4349 14.525 33.8516 14.825C34.2682 15.125 34.8182 15.275 35.5016 15.275ZM50.9068 18.25C49.5735 18.25 48.4485 18.0167 47.5318 17.55C46.6318 17.0833 45.9402 16.425 45.4568 15.575C44.9902 14.725 44.7235 13.7333 44.6568 12.6C44.6402 12.3 44.6318 11.9333 44.6318 11.5C44.6318 11.0667 44.6402 10.7 44.6568 10.4C44.7235 9.25 44.9985 8.25833 45.4818 7.425C45.9818 6.575 46.6818 5.91667 47.5818 5.45C48.4985 4.98333 49.6068 4.75 50.9068 4.75C52.2068 4.75 53.3068 4.98333 54.2068 5.45C55.1235 5.91667 55.8235 6.575 56.3068 7.425C56.8068 8.25833 57.0902 9.25 57.1568 10.4C57.1735 10.7 57.1818 11.0667 57.1818 11.5C57.1818 11.9333 57.1735 12.3 57.1568 12.6C57.0902 13.7333 56.8152 14.725 56.3318 15.575C55.8652 16.425 55.1735 17.0833 54.2568 17.55C53.3568 18.0167 52.2402 18.25 50.9068 18.25ZM50.9068 15.775C51.7902 15.775 52.4735 15.5 52.9568 14.95C53.4402 14.3833 53.7068 13.5583 53.7568 12.475C53.7735 12.225 53.7818 11.9 53.7818 11.5C53.7818 11.1 53.7735 10.775 53.7568 10.525C53.7068 9.45833 53.4402 8.64167 52.9568 8.075C52.4735 7.50833 51.7902 7.225 50.9068 7.225C50.0235 7.225 49.3402 7.50833 48.8568 8.075C48.3735 8.64167 48.1068 9.45833 48.0568 10.525C48.0402 10.775 48.0318 11.1 48.0318 11.5C48.0318 11.9 48.0402 12.225 48.0568 12.475C48.1068 13.5583 48.3735 14.3833 48.8568 14.95C49.3402 15.5 50.0235 15.775 50.9068 15.775ZM62.4068 18C62.2402 18 62.0985 17.9417 61.9818 17.825C61.8652 17.7083 61.8068 17.5667 61.8068 17.4V3.575H57.1818C57.0152 3.575 56.8735 3.51667 56.7568 3.4C56.6402 3.28333 56.5818 3.14167 56.5818 2.975V1.125C56.5818 0.941666 56.6402 0.791666 56.7568 0.675C56.8735 0.558332 57.0152 0.499999 57.1818 0.499999H69.9318C70.1152 0.499999 70.2652 0.558332 70.3818 0.675C70.4985 0.791666 70.5568 0.941666 70.5568 1.125V2.975C70.5568 3.14167 70.4985 3.28333 70.3818 3.4C70.2652 3.51667 70.1152 3.575 69.9318 3.575H65.3318V17.4C65.3318 17.5667 65.2735 17.7083 65.1568 17.825C65.0402 17.9417 64.8902 18 64.7068 18H62.4068ZM73.6055 22.75C73.4721 22.75 73.3555 22.7 73.2555 22.6C73.1555 22.5 73.1055 22.3833 73.1055 22.25C73.1055 22.1833 73.1055 22.1167 73.1055 22.05C73.1221 22 73.1555 21.9333 73.2055 21.85L75.1555 17.225L70.3555 5.9C70.2888 5.73333 70.2555 5.61667 70.2555 5.55C70.2721 5.4 70.3305 5.275 70.4305 5.175C70.5305 5.05833 70.6555 5 70.8055 5H72.8305C73.0305 5 73.1805 5.05 73.2805 5.15C73.3805 5.25 73.4555 5.35833 73.5055 5.475L76.8305 13.65L80.2555 5.475C80.3055 5.34167 80.3805 5.23333 80.4805 5.15C80.5805 5.05 80.7305 5 80.9305 5H82.9305C83.0638 5 83.1805 5.05 83.2805 5.15C83.3971 5.25 83.4555 5.36667 83.4555 5.5C83.4555 5.6 83.4221 5.73333 83.3555 5.9L76.2805 22.275C76.2138 22.4083 76.1305 22.5167 76.0305 22.6C75.9305 22.7 75.7805 22.75 75.5805 22.75H73.6055ZM86.2359 22.75C86.0693 22.75 85.9276 22.6917 85.8109 22.575C85.6943 22.4583 85.6359 22.3167 85.6359 22.15V5.6C85.6359 5.43333 85.6943 5.29167 85.8109 5.175C85.9276 5.05833 86.0693 5 86.2359 5H88.2109C88.3943 5 88.5359 5.05833 88.6359 5.175C88.7526 5.29167 88.8109 5.43333 88.8109 5.6V6.6C89.2109 6.06667 89.7359 5.625 90.3859 5.275C91.0359 4.925 91.8443 4.75 92.8109 4.75C93.6943 4.75 94.4609 4.89167 95.1109 5.175C95.7609 5.45833 96.3026 5.86667 96.7359 6.4C97.1693 6.91667 97.5026 7.53333 97.7359 8.25C97.9693 8.96667 98.1026 9.75833 98.1359 10.625C98.1526 10.9083 98.1609 11.2 98.1609 11.5C98.1609 11.8 98.1526 12.1 98.1359 12.4C98.1193 13.2333 97.9943 14.0083 97.7609 14.725C97.5276 15.425 97.1859 16.0417 96.7359 16.575C96.3026 17.0917 95.7609 17.5 95.1109 17.8C94.4609 18.1 93.6943 18.25 92.8109 18.25C91.9109 18.25 91.1443 18.0917 90.5109 17.775C89.8776 17.4417 89.3609 17.0083 88.9609 16.475V22.15C88.9609 22.3167 88.9026 22.4583 88.7859 22.575C88.6859 22.6917 88.5443 22.75 88.3609 22.75H86.2359ZM91.8859 15.575C92.6026 15.575 93.1609 15.425 93.5609 15.125C93.9609 14.8083 94.2443 14.4 94.4109 13.9C94.5943 13.4 94.7026 12.85 94.7359 12.25C94.7693 11.75 94.7693 11.25 94.7359 10.75C94.7026 10.15 94.5943 9.6 94.4109 9.1C94.2443 8.6 93.9609 8.2 93.5609 7.9C93.1609 7.58333 92.6026 7.425 91.8859 7.425C91.2026 7.425 90.6443 7.58333 90.2109 7.9C89.7943 8.21667 89.4859 8.625 89.2859 9.125C89.1026 9.60833 88.9943 10.1083 88.9609 10.625C88.9443 10.925 88.9359 11.2417 88.9359 11.575C88.9359 11.9083 88.9443 12.2333 88.9609 12.55C88.9776 13.05 89.0943 13.5333 89.3109 14C89.5276 14.45 89.8443 14.825 90.2609 15.125C90.6776 15.425 91.2193 15.575 91.8859 15.575ZM106.567 18.25C104.717 18.25 103.251 17.7167 102.167 16.65C101.084 15.5833 100.501 14.0667 100.417 12.1C100.401 11.9333 100.392 11.725 100.392 11.475C100.392 11.2083 100.401 11 100.417 10.85C100.484 9.6 100.767 8.51667 101.267 7.6C101.784 6.68333 102.492 5.98333 103.392 5.5C104.292 5 105.351 4.75 106.567 4.75C107.917 4.75 109.051 5.03333 109.967 5.6C110.884 6.15 111.576 6.925 112.042 7.925C112.509 8.90833 112.742 10.05 112.742 11.35V11.875C112.742 12.0417 112.684 12.1833 112.567 12.3C112.451 12.4167 112.301 12.475 112.117 12.475H103.817C103.817 12.475 103.817 12.5 103.817 12.55C103.817 12.6 103.817 12.6417 103.817 12.675C103.834 13.2583 103.942 13.8 104.142 14.3C104.359 14.7833 104.667 15.175 105.067 15.475C105.484 15.775 105.976 15.925 106.542 15.925C107.009 15.925 107.401 15.8583 107.717 15.725C108.034 15.575 108.292 15.4083 108.492 15.225C108.692 15.0417 108.834 14.8917 108.917 14.775C109.067 14.575 109.184 14.4583 109.267 14.425C109.367 14.375 109.509 14.35 109.692 14.35H111.842C112.009 14.35 112.142 14.4 112.242 14.5C112.359 14.6 112.409 14.725 112.392 14.875C112.376 15.1417 112.234 15.4667 111.967 15.85C111.717 16.2333 111.351 16.6083 110.867 16.975C110.384 17.3417 109.776 17.65 109.042 17.9C108.326 18.1333 107.501 18.25 106.567 18.25ZM103.817 10.375H109.342V10.3C109.342 9.65 109.234 9.08333 109.017 8.6C108.801 8.11667 108.484 7.73333 108.067 7.45C107.651 7.16667 107.151 7.025 106.567 7.025C105.984 7.025 105.484 7.16667 105.067 7.45C104.651 7.73333 104.334 8.11667 104.117 8.6C103.917 9.08333 103.817 9.65 103.817 10.3V10.375Z" fill="black"/>
</svg>
